<mxfile host="app.diagrams.net" modified="2024-06-05T08:01:00.589Z" agent="Mozilla/5.0 (Windows NT 10.0; Win64; x64) AppleWebKit/537.36 (KHTML, like Gecko) Chrome/125.0.0.0 Safari/537.36 Edg/125.0.0.0" etag="0jUSEWLvZYg6ryXt_dwi" version="24.4.13" type="device">
  <diagram name="PÃ¡gina-1" id="O47oP1mxyLu-YxhfrhfA">
    <mxGraphModel dx="2213" dy="1966" grid="1" gridSize="10" guides="1" tooltips="1" connect="1" arrows="1" fold="1" page="1" pageScale="1" pageWidth="827" pageHeight="1169" math="0" shadow="0">
      <root>
        <mxCell id="0" />
        <mxCell id="1" parent="0" />
        <mxCell id="e1Va-rmKH6BIrTXIrwSJ-1" value="" style="edgeStyle=orthogonalEdgeStyle;rounded=0;orthogonalLoop=1;jettySize=auto;html=1;endArrow=none;endFill=0;strokeColor=#18d1f7;" parent="1" source="e1Va-rmKH6BIrTXIrwSJ-2" target="e1Va-rmKH6BIrTXIrwSJ-13" edge="1">
          <mxGeometry relative="1" as="geometry" />
        </mxCell>
        <mxCell id="e1Va-rmKH6BIrTXIrwSJ-155" value="" style="edgeStyle=orthogonalEdgeStyle;rounded=0;orthogonalLoop=1;jettySize=auto;html=1;endArrow=none;endFill=0;strokeColor=#18D1F7;exitX=0.5;exitY=0;exitDx=0;exitDy=0;" parent="1" source="e1Va-rmKH6BIrTXIrwSJ-2" target="e1Va-rmKH6BIrTXIrwSJ-154" edge="1">
          <mxGeometry relative="1" as="geometry">
            <Array as="points">
              <mxPoint x="180" y="60" />
              <mxPoint x="59" y="60" />
            </Array>
          </mxGeometry>
        </mxCell>
        <mxCell id="e1Va-rmKH6BIrTXIrwSJ-197" style="edgeStyle=orthogonalEdgeStyle;rounded=0;orthogonalLoop=1;jettySize=auto;html=1;entryX=0.5;entryY=1;entryDx=0;entryDy=0;strokeColor=#18D1F7;endArrow=none;endFill=0;" parent="1" source="e1Va-rmKH6BIrTXIrwSJ-2" target="e1Va-rmKH6BIrTXIrwSJ-196" edge="1">
          <mxGeometry relative="1" as="geometry">
            <Array as="points">
              <mxPoint x="180" y="60" />
              <mxPoint x="310" y="60" />
            </Array>
          </mxGeometry>
        </mxCell>
        <mxCell id="e1Va-rmKH6BIrTXIrwSJ-2" value="User" style="rounded=0;whiteSpace=wrap;html=1;" parent="1" vertex="1">
          <mxGeometry x="120" y="110" width="120" height="60" as="geometry" />
        </mxCell>
        <mxCell id="e1Va-rmKH6BIrTXIrwSJ-3" style="edgeStyle=orthogonalEdgeStyle;rounded=0;orthogonalLoop=1;jettySize=auto;html=1;entryX=0;entryY=0.5;entryDx=0;entryDy=0;endArrow=none;endFill=0;strokeColor=#18d1f7;" parent="1" source="e1Va-rmKH6BIrTXIrwSJ-4" target="e1Va-rmKH6BIrTXIrwSJ-2" edge="1">
          <mxGeometry relative="1" as="geometry" />
        </mxCell>
        <mxCell id="e1Va-rmKH6BIrTXIrwSJ-4" value="&lt;u&gt;Id&lt;/u&gt;" style="ellipse;whiteSpace=wrap;html=1;rounded=0;" parent="1" vertex="1">
          <mxGeometry x="-70" y="50" width="90" height="40" as="geometry" />
        </mxCell>
        <mxCell id="e1Va-rmKH6BIrTXIrwSJ-5" style="edgeStyle=orthogonalEdgeStyle;rounded=0;orthogonalLoop=1;jettySize=auto;html=1;entryX=0;entryY=0.5;entryDx=0;entryDy=0;endArrow=none;endFill=0;strokeColor=#18d1f7;" parent="1" source="e1Va-rmKH6BIrTXIrwSJ-6" target="e1Va-rmKH6BIrTXIrwSJ-2" edge="1">
          <mxGeometry relative="1" as="geometry" />
        </mxCell>
        <mxCell id="e1Va-rmKH6BIrTXIrwSJ-6" value="Username" style="ellipse;whiteSpace=wrap;html=1;rounded=0;" parent="1" vertex="1">
          <mxGeometry x="-70" y="100" width="90" height="40" as="geometry" />
        </mxCell>
        <mxCell id="e1Va-rmKH6BIrTXIrwSJ-7" style="edgeStyle=orthogonalEdgeStyle;rounded=0;orthogonalLoop=1;jettySize=auto;html=1;entryX=0;entryY=0.5;entryDx=0;entryDy=0;endArrow=none;endFill=0;strokeColor=#18d1f7;" parent="1" source="e1Va-rmKH6BIrTXIrwSJ-8" target="e1Va-rmKH6BIrTXIrwSJ-2" edge="1">
          <mxGeometry relative="1" as="geometry" />
        </mxCell>
        <mxCell id="e1Va-rmKH6BIrTXIrwSJ-8" value="Password" style="ellipse;whiteSpace=wrap;html=1;rounded=0;" parent="1" vertex="1">
          <mxGeometry x="-70" y="150" width="90" height="40" as="geometry" />
        </mxCell>
        <mxCell id="e1Va-rmKH6BIrTXIrwSJ-9" style="edgeStyle=orthogonalEdgeStyle;rounded=0;orthogonalLoop=1;jettySize=auto;html=1;entryX=0;entryY=0.5;entryDx=0;entryDy=0;endArrow=none;endFill=0;strokeColor=#18d1f7;" parent="1" source="e1Va-rmKH6BIrTXIrwSJ-10" target="e1Va-rmKH6BIrTXIrwSJ-2" edge="1">
          <mxGeometry relative="1" as="geometry" />
        </mxCell>
        <mxCell id="e1Va-rmKH6BIrTXIrwSJ-10" value="Email" style="ellipse;whiteSpace=wrap;html=1;rounded=0;" parent="1" vertex="1">
          <mxGeometry x="-70" y="200" width="90" height="40" as="geometry" />
        </mxCell>
        <mxCell id="e1Va-rmKH6BIrTXIrwSJ-12" style="edgeStyle=orthogonalEdgeStyle;rounded=0;orthogonalLoop=1;jettySize=auto;html=1;endArrow=none;endFill=0;entryX=0;entryY=0.5;entryDx=0;entryDy=0;strokeColor=#18d1f7;exitX=1;exitY=0.5;exitDx=0;exitDy=0;" parent="1" source="e1Va-rmKH6BIrTXIrwSJ-13" target="e1Va-rmKH6BIrTXIrwSJ-14" edge="1">
          <mxGeometry relative="1" as="geometry">
            <mxPoint x="758.75" y="140" as="targetPoint" />
            <mxPoint x="668.75" y="140" as="sourcePoint" />
          </mxGeometry>
        </mxCell>
        <mxCell id="e1Va-rmKH6BIrTXIrwSJ-13" value="Create" style="rhombus;whiteSpace=wrap;html=1;rounded=0;" parent="1" vertex="1">
          <mxGeometry x="428.75" y="100" width="100" height="80" as="geometry" />
        </mxCell>
        <mxCell id="e1Va-rmKH6BIrTXIrwSJ-14" value="Character" style="rounded=0;whiteSpace=wrap;html=1;" parent="1" vertex="1">
          <mxGeometry x="758.75" y="110" width="120" height="60" as="geometry" />
        </mxCell>
        <mxCell id="e1Va-rmKH6BIrTXIrwSJ-15" style="edgeStyle=orthogonalEdgeStyle;rounded=0;orthogonalLoop=1;jettySize=auto;html=1;entryX=0.5;entryY=0;entryDx=0;entryDy=0;endArrow=none;endFill=0;strokeColor=#18d1f7;" parent="1" source="e1Va-rmKH6BIrTXIrwSJ-16" target="e1Va-rmKH6BIrTXIrwSJ-14" edge="1">
          <mxGeometry relative="1" as="geometry">
            <Array as="points">
              <mxPoint x="819" y="60" />
            </Array>
          </mxGeometry>
        </mxCell>
        <mxCell id="e1Va-rmKH6BIrTXIrwSJ-16" value="&lt;u&gt;Id&lt;/u&gt;" style="ellipse;whiteSpace=wrap;html=1;rounded=0;" parent="1" vertex="1">
          <mxGeometry x="663.75" y="30" width="90" height="40" as="geometry" />
        </mxCell>
        <mxCell id="e1Va-rmKH6BIrTXIrwSJ-17" style="edgeStyle=orthogonalEdgeStyle;rounded=0;orthogonalLoop=1;jettySize=auto;html=1;entryX=0.5;entryY=0;entryDx=0;entryDy=0;endArrow=none;endFill=0;strokeColor=#18d1f7;" parent="1" source="e1Va-rmKH6BIrTXIrwSJ-18" target="e1Va-rmKH6BIrTXIrwSJ-14" edge="1">
          <mxGeometry relative="1" as="geometry">
            <Array as="points">
              <mxPoint x="782" y="60" />
              <mxPoint x="819" y="60" />
            </Array>
          </mxGeometry>
        </mxCell>
        <mxCell id="e1Va-rmKH6BIrTXIrwSJ-18" value="name" style="ellipse;whiteSpace=wrap;html=1;rounded=0;" parent="1" vertex="1">
          <mxGeometry x="737" y="-25" width="90" height="40" as="geometry" />
        </mxCell>
        <mxCell id="e1Va-rmKH6BIrTXIrwSJ-19" style="edgeStyle=orthogonalEdgeStyle;rounded=0;orthogonalLoop=1;jettySize=auto;html=1;entryX=1;entryY=0.5;entryDx=0;entryDy=0;endArrow=none;endFill=0;strokeColor=#18d1f7;" parent="1" source="e1Va-rmKH6BIrTXIrwSJ-20" target="e1Va-rmKH6BIrTXIrwSJ-14" edge="1">
          <mxGeometry relative="1" as="geometry">
            <Array as="points">
              <mxPoint x="900" y="110" />
              <mxPoint x="900" y="140" />
            </Array>
          </mxGeometry>
        </mxCell>
        <mxCell id="e1Va-rmKH6BIrTXIrwSJ-20" value="title image" style="ellipse;whiteSpace=wrap;html=1;rounded=0;" parent="1" vertex="1">
          <mxGeometry x="980" y="90" width="90" height="40" as="geometry" />
        </mxCell>
        <mxCell id="e1Va-rmKH6BIrTXIrwSJ-21" style="edgeStyle=orthogonalEdgeStyle;rounded=0;orthogonalLoop=1;jettySize=auto;html=1;entryX=0.5;entryY=0;entryDx=0;entryDy=0;endArrow=none;endFill=0;strokeColor=#18d1f7;" parent="1" source="e1Va-rmKH6BIrTXIrwSJ-22" target="e1Va-rmKH6BIrTXIrwSJ-14" edge="1">
          <mxGeometry relative="1" as="geometry" />
        </mxCell>
        <mxCell id="e1Va-rmKH6BIrTXIrwSJ-22" value="background image" style="ellipse;whiteSpace=wrap;html=1;rounded=0;" parent="1" vertex="1">
          <mxGeometry x="836.25" y="-30" width="90" height="40" as="geometry" />
        </mxCell>
        <mxCell id="e1Va-rmKH6BIrTXIrwSJ-148" style="edgeStyle=orthogonalEdgeStyle;rounded=0;orthogonalLoop=1;jettySize=auto;html=1;entryX=1;entryY=0.5;entryDx=0;entryDy=0;endArrow=none;endFill=0;strokeColor=#18D1F7;" parent="1" source="e1Va-rmKH6BIrTXIrwSJ-23" target="e1Va-rmKH6BIrTXIrwSJ-142" edge="1">
          <mxGeometry relative="1" as="geometry" />
        </mxCell>
        <mxCell id="e1Va-rmKH6BIrTXIrwSJ-23" value="Register" style="rhombus;whiteSpace=wrap;html=1;rounded=0;" parent="1" vertex="1">
          <mxGeometry x="430" y="380" width="90" height="80" as="geometry" />
        </mxCell>
        <mxCell id="e1Va-rmKH6BIrTXIrwSJ-24" style="edgeStyle=orthogonalEdgeStyle;rounded=0;orthogonalLoop=1;jettySize=auto;html=1;entryX=1;entryY=0.5;entryDx=0;entryDy=0;endArrow=none;endFill=0;strokeColor=#18d1f7;" parent="1" source="e1Va-rmKH6BIrTXIrwSJ-26" target="e1Va-rmKH6BIrTXIrwSJ-23" edge="1">
          <mxGeometry relative="1" as="geometry" />
        </mxCell>
        <mxCell id="e1Va-rmKH6BIrTXIrwSJ-25" style="edgeStyle=orthogonalEdgeStyle;rounded=0;orthogonalLoop=1;jettySize=auto;html=1;entryX=0;entryY=0.5;entryDx=0;entryDy=0;exitX=1;exitY=0.5;exitDx=0;exitDy=0;endArrow=none;endFill=0;strokeColor=#18d1f7;" parent="1" source="e1Va-rmKH6BIrTXIrwSJ-26" target="e1Va-rmKH6BIrTXIrwSJ-54" edge="1">
          <mxGeometry relative="1" as="geometry" />
        </mxCell>
        <mxCell id="e1Va-rmKH6BIrTXIrwSJ-26" value="Training" style="whiteSpace=wrap;html=1;rounded=0;" parent="1" vertex="1">
          <mxGeometry x="615" y="390" width="120" height="60" as="geometry" />
        </mxCell>
        <mxCell id="e1Va-rmKH6BIrTXIrwSJ-27" style="edgeStyle=orthogonalEdgeStyle;rounded=0;orthogonalLoop=1;jettySize=auto;html=1;entryX=0.5;entryY=1;entryDx=0;entryDy=0;endArrow=none;endFill=0;strokeColor=#18D1F7;" parent="1" source="e1Va-rmKH6BIrTXIrwSJ-28" target="e1Va-rmKH6BIrTXIrwSJ-26" edge="1">
          <mxGeometry relative="1" as="geometry">
            <Array as="points">
              <mxPoint x="675" y="690" />
              <mxPoint x="675" y="690" />
            </Array>
          </mxGeometry>
        </mxCell>
        <mxCell id="e1Va-rmKH6BIrTXIrwSJ-28" value="description" style="ellipse;whiteSpace=wrap;html=1;rounded=0;" parent="1" vertex="1">
          <mxGeometry x="578.75" y="660" width="90" height="40" as="geometry" />
        </mxCell>
        <mxCell id="e1Va-rmKH6BIrTXIrwSJ-29" style="edgeStyle=orthogonalEdgeStyle;rounded=0;orthogonalLoop=1;jettySize=auto;html=1;entryX=0.5;entryY=1;entryDx=0;entryDy=0;strokeColor=#18D1F7;endArrow=none;endFill=0;" parent="1" source="e1Va-rmKH6BIrTXIrwSJ-30" target="e1Va-rmKH6BIrTXIrwSJ-26" edge="1">
          <mxGeometry relative="1" as="geometry">
            <Array as="points">
              <mxPoint x="675" y="690" />
            </Array>
          </mxGeometry>
        </mxCell>
        <mxCell id="e1Va-rmKH6BIrTXIrwSJ-30" value="character" style="ellipse;whiteSpace=wrap;html=1;rounded=0;" parent="1" vertex="1">
          <mxGeometry x="689.75" y="660" width="90" height="40" as="geometry" />
        </mxCell>
        <mxCell id="e1Va-rmKH6BIrTXIrwSJ-31" style="edgeStyle=orthogonalEdgeStyle;rounded=0;orthogonalLoop=1;jettySize=auto;html=1;entryX=0.5;entryY=1;entryDx=0;entryDy=0;endArrow=none;endFill=0;strokeColor=#18D1F7;" parent="1" source="e1Va-rmKH6BIrTXIrwSJ-32" target="e1Va-rmKH6BIrTXIrwSJ-26" edge="1">
          <mxGeometry relative="1" as="geometry" />
        </mxCell>
        <mxCell id="e1Va-rmKH6BIrTXIrwSJ-32" value="rank" style="ellipse;whiteSpace=wrap;html=1;rounded=0;" parent="1" vertex="1">
          <mxGeometry x="838.75" y="590" width="90" height="40" as="geometry" />
        </mxCell>
        <mxCell id="e1Va-rmKH6BIrTXIrwSJ-33" style="edgeStyle=orthogonalEdgeStyle;rounded=0;orthogonalLoop=1;jettySize=auto;html=1;entryX=0.5;entryY=1;entryDx=0;entryDy=0;strokeColor=#18D1F7;endArrow=none;endFill=0;" parent="1" source="e1Va-rmKH6BIrTXIrwSJ-34" target="e1Va-rmKH6BIrTXIrwSJ-26" edge="1">
          <mxGeometry relative="1" as="geometry" />
        </mxCell>
        <mxCell id="e1Va-rmKH6BIrTXIrwSJ-34" value="city" style="ellipse;whiteSpace=wrap;html=1;rounded=0;" parent="1" vertex="1">
          <mxGeometry x="858.75" y="540" width="90" height="40" as="geometry" />
        </mxCell>
        <mxCell id="e1Va-rmKH6BIrTXIrwSJ-35" style="edgeStyle=orthogonalEdgeStyle;rounded=0;orthogonalLoop=1;jettySize=auto;html=1;entryX=0.5;entryY=1;entryDx=0;entryDy=0;endArrow=none;endFill=0;strokeColor=#18d1f7;" parent="1" source="e1Va-rmKH6BIrTXIrwSJ-36" target="e1Va-rmKH6BIrTXIrwSJ-26" edge="1">
          <mxGeometry relative="1" as="geometry" />
        </mxCell>
        <mxCell id="e1Va-rmKH6BIrTXIrwSJ-36" value="&lt;u&gt;Id&lt;/u&gt;" style="ellipse;whiteSpace=wrap;html=1;rounded=0;" parent="1" vertex="1">
          <mxGeometry x="401.25" y="540" width="90" height="40" as="geometry" />
        </mxCell>
        <mxCell id="e1Va-rmKH6BIrTXIrwSJ-37" style="edgeStyle=orthogonalEdgeStyle;rounded=0;orthogonalLoop=1;jettySize=auto;html=1;entryX=0.5;entryY=1;entryDx=0;entryDy=0;endArrow=none;endFill=0;strokeColor=#18d1f7;" parent="1" source="e1Va-rmKH6BIrTXIrwSJ-38" target="e1Va-rmKH6BIrTXIrwSJ-26" edge="1">
          <mxGeometry relative="1" as="geometry" />
        </mxCell>
        <mxCell id="e1Va-rmKH6BIrTXIrwSJ-38" value="name" style="ellipse;whiteSpace=wrap;html=1;rounded=0;" parent="1" vertex="1">
          <mxGeometry x="446.25" y="590" width="90" height="40" as="geometry" />
        </mxCell>
        <mxCell id="e1Va-rmKH6BIrTXIrwSJ-39" style="edgeStyle=orthogonalEdgeStyle;rounded=0;orthogonalLoop=1;jettySize=auto;html=1;entryX=0.5;entryY=1;entryDx=0;entryDy=0;strokeColor=#18D1F7;endArrow=none;endFill=0;" parent="1" source="e1Va-rmKH6BIrTXIrwSJ-40" target="e1Va-rmKH6BIrTXIrwSJ-26" edge="1">
          <mxGeometry relative="1" as="geometry">
            <Array as="points">
              <mxPoint x="675" y="640" />
            </Array>
          </mxGeometry>
        </mxCell>
        <mxCell id="e1Va-rmKH6BIrTXIrwSJ-40" value="price" style="ellipse;whiteSpace=wrap;html=1;rounded=0;" parent="1" vertex="1">
          <mxGeometry x="528.75" y="620" width="90" height="40" as="geometry" />
        </mxCell>
        <mxCell id="e1Va-rmKH6BIrTXIrwSJ-41" value="(0,N)" style="text;html=1;align=center;verticalAlign=middle;resizable=0;points=[];autosize=1;" parent="1" vertex="1">
          <mxGeometry x="713.75" y="110" width="50" height="30" as="geometry" />
        </mxCell>
        <mxCell id="e1Va-rmKH6BIrTXIrwSJ-42" value="(1,1)" style="text;html=1;align=center;verticalAlign=middle;resizable=0;points=[];autosize=1;strokeColor=none;fillColor=none;" parent="1" vertex="1">
          <mxGeometry x="235" y="110" width="50" height="30" as="geometry" />
        </mxCell>
        <mxCell id="e1Va-rmKH6BIrTXIrwSJ-43" value="1:N" style="text;html=1;align=center;verticalAlign=middle;resizable=0;points=[];autosize=1;strokeColor=none;fillColor=none;" parent="1" vertex="1">
          <mxGeometry x="458.75" y="70" width="40" height="30" as="geometry" />
        </mxCell>
        <mxCell id="e1Va-rmKH6BIrTXIrwSJ-44" value="Transaction" style="whiteSpace=wrap;html=1;" parent="1" vertex="1">
          <mxGeometry x="1015" y="390" width="120" height="60" as="geometry" />
        </mxCell>
        <mxCell id="e1Va-rmKH6BIrTXIrwSJ-45" style="edgeStyle=orthogonalEdgeStyle;rounded=0;orthogonalLoop=1;jettySize=auto;html=1;entryX=0;entryY=0.5;entryDx=0;entryDy=0;endArrow=none;endFill=0;strokeColor=#18d1f7;" parent="1" source="e1Va-rmKH6BIrTXIrwSJ-46" target="e1Va-rmKH6BIrTXIrwSJ-2" edge="1">
          <mxGeometry relative="1" as="geometry" />
        </mxCell>
        <mxCell id="e1Va-rmKH6BIrTXIrwSJ-46" value="User_Type" style="ellipse;whiteSpace=wrap;html=1;rounded=0;" parent="1" vertex="1">
          <mxGeometry x="-70" y="250" width="90" height="40" as="geometry" />
        </mxCell>
        <mxCell id="e1Va-rmKH6BIrTXIrwSJ-47" value="(0,N)" style="text;html=1;align=center;verticalAlign=middle;resizable=0;points=[];autosize=1;strokeColor=none;fillColor=none;" parent="1" vertex="1">
          <mxGeometry x="555" y="380" width="50" height="30" as="geometry" />
        </mxCell>
        <mxCell id="e1Va-rmKH6BIrTXIrwSJ-49" value="1:N" style="text;html=1;align=center;verticalAlign=middle;resizable=0;points=[];autosize=1;strokeColor=none;fillColor=none;" parent="1" vertex="1">
          <mxGeometry x="455" y="350" width="40" height="30" as="geometry" />
        </mxCell>
        <mxCell id="e1Va-rmKH6BIrTXIrwSJ-50" style="edgeStyle=orthogonalEdgeStyle;rounded=0;orthogonalLoop=1;jettySize=auto;html=1;entryX=0.5;entryY=1;entryDx=0;entryDy=0;strokeColor=#18D1F7;endArrow=none;endFill=0;" parent="1" source="e1Va-rmKH6BIrTXIrwSJ-51" target="e1Va-rmKH6BIrTXIrwSJ-26" edge="1">
          <mxGeometry relative="1" as="geometry" />
        </mxCell>
        <mxCell id="e1Va-rmKH6BIrTXIrwSJ-51" value="time elapsed" style="ellipse;whiteSpace=wrap;html=1;rounded=0;" parent="1" vertex="1">
          <mxGeometry x="753.75" y="620" width="90" height="40" as="geometry" />
        </mxCell>
        <mxCell id="e1Va-rmKH6BIrTXIrwSJ-52" style="edgeStyle=orthogonalEdgeStyle;rounded=0;orthogonalLoop=1;jettySize=auto;html=1;entryX=0;entryY=0.5;entryDx=0;entryDy=0;endArrow=none;endFill=0;strokeColor=#18d1f7;" parent="1" source="e1Va-rmKH6BIrTXIrwSJ-54" target="e1Va-rmKH6BIrTXIrwSJ-44" edge="1">
          <mxGeometry relative="1" as="geometry" />
        </mxCell>
        <mxCell id="e1Va-rmKH6BIrTXIrwSJ-54" value="Have" style="rhombus;whiteSpace=wrap;html=1;rounded=0;" parent="1" vertex="1">
          <mxGeometry x="840" y="380" width="90" height="80" as="geometry" />
        </mxCell>
        <mxCell id="e1Va-rmKH6BIrTXIrwSJ-56" style="edgeStyle=orthogonalEdgeStyle;rounded=0;orthogonalLoop=1;jettySize=auto;html=1;entryX=1;entryY=0.5;entryDx=0;entryDy=0;endArrow=none;endFill=0;strokeColor=#18d1f7;" parent="1" source="e1Va-rmKH6BIrTXIrwSJ-57" target="e1Va-rmKH6BIrTXIrwSJ-44" edge="1">
          <mxGeometry relative="1" as="geometry" />
        </mxCell>
        <mxCell id="e1Va-rmKH6BIrTXIrwSJ-57" value="&lt;u&gt;Id&lt;/u&gt;" style="ellipse;whiteSpace=wrap;html=1;rounded=0;" parent="1" vertex="1">
          <mxGeometry x="1195" y="350" width="90" height="40" as="geometry" />
        </mxCell>
        <mxCell id="e1Va-rmKH6BIrTXIrwSJ-58" style="edgeStyle=orthogonalEdgeStyle;rounded=0;orthogonalLoop=1;jettySize=auto;html=1;entryX=1;entryY=0.5;entryDx=0;entryDy=0;endArrow=none;endFill=0;strokeColor=#18d1f7;" parent="1" source="e1Va-rmKH6BIrTXIrwSJ-59" target="e1Va-rmKH6BIrTXIrwSJ-44" edge="1">
          <mxGeometry relative="1" as="geometry" />
        </mxCell>
        <mxCell id="e1Va-rmKH6BIrTXIrwSJ-59" value="price" style="ellipse;whiteSpace=wrap;html=1;rounded=0;" parent="1" vertex="1">
          <mxGeometry x="1195" y="400" width="90" height="40" as="geometry" />
        </mxCell>
        <mxCell id="e1Va-rmKH6BIrTXIrwSJ-60" style="edgeStyle=orthogonalEdgeStyle;rounded=0;orthogonalLoop=1;jettySize=auto;html=1;entryX=1;entryY=0.5;entryDx=0;entryDy=0;endArrow=none;endFill=0;strokeColor=#18d1f7;" parent="1" source="e1Va-rmKH6BIrTXIrwSJ-61" target="e1Va-rmKH6BIrTXIrwSJ-44" edge="1">
          <mxGeometry relative="1" as="geometry" />
        </mxCell>
        <mxCell id="e1Va-rmKH6BIrTXIrwSJ-61" value="payment method" style="ellipse;whiteSpace=wrap;html=1;rounded=0;" parent="1" vertex="1">
          <mxGeometry x="1195" y="450" width="90" height="40" as="geometry" />
        </mxCell>
        <mxCell id="e1Va-rmKH6BIrTXIrwSJ-62" style="edgeStyle=orthogonalEdgeStyle;rounded=0;orthogonalLoop=1;jettySize=auto;html=1;entryX=0.5;entryY=0;entryDx=0;entryDy=0;endArrow=none;endFill=0;strokeColor=#18d1f7;exitX=0;exitY=0.5;exitDx=0;exitDy=0;" parent="1" source="e1Va-rmKH6BIrTXIrwSJ-63" target="e1Va-rmKH6BIrTXIrwSJ-14" edge="1">
          <mxGeometry relative="1" as="geometry">
            <Array as="points">
              <mxPoint x="819" y="60" />
            </Array>
          </mxGeometry>
        </mxCell>
        <mxCell id="e1Va-rmKH6BIrTXIrwSJ-63" value="biography" style="ellipse;whiteSpace=wrap;html=1;rounded=0;" parent="1" vertex="1">
          <mxGeometry x="980" y="40" width="90" height="40" as="geometry" />
        </mxCell>
        <mxCell id="e1Va-rmKH6BIrTXIrwSJ-64" style="edgeStyle=orthogonalEdgeStyle;rounded=0;orthogonalLoop=1;jettySize=auto;html=1;entryX=1;entryY=0.5;entryDx=0;entryDy=0;endArrow=none;endFill=0;strokeColor=#18d1f7;exitX=0;exitY=0.5;exitDx=0;exitDy=0;" parent="1" source="e1Va-rmKH6BIrTXIrwSJ-65" edge="1">
          <mxGeometry relative="1" as="geometry">
            <mxPoint x="929.75" y="190" as="sourcePoint" />
            <mxPoint x="879.75" y="140" as="targetPoint" />
            <Array as="points">
              <mxPoint x="900" y="170" />
              <mxPoint x="900" y="140" />
            </Array>
          </mxGeometry>
        </mxCell>
        <mxCell id="e1Va-rmKH6BIrTXIrwSJ-65" value="Introduction" style="ellipse;whiteSpace=wrap;html=1;rounded=0;" parent="1" vertex="1">
          <mxGeometry x="980" y="150" width="90" height="40" as="geometry" />
        </mxCell>
        <mxCell id="e1Va-rmKH6BIrTXIrwSJ-137" style="edgeStyle=orthogonalEdgeStyle;rounded=0;orthogonalLoop=1;jettySize=auto;html=1;entryX=0;entryY=0.5;entryDx=0;entryDy=0;endArrow=none;endFill=0;strokeColor=#18D1F7;" parent="1" target="e1Va-rmKH6BIrTXIrwSJ-138" edge="1">
          <mxGeometry relative="1" as="geometry">
            <mxPoint x="175" y="170" as="sourcePoint" />
          </mxGeometry>
        </mxCell>
        <mxCell id="e1Va-rmKH6BIrTXIrwSJ-138" value="" style="triangle;whiteSpace=wrap;html=1;rotation=90;labelPosition=left;verticalLabelPosition=middle;align=right;verticalAlign=middle;" parent="1" vertex="1">
          <mxGeometry x="145" y="240" width="60" height="80" as="geometry" />
        </mxCell>
        <mxCell id="e1Va-rmKH6BIrTXIrwSJ-139" style="edgeStyle=orthogonalEdgeStyle;rounded=0;orthogonalLoop=1;jettySize=auto;html=1;entryX=1;entryY=0.5;entryDx=0;entryDy=0;endArrow=none;endFill=0;strokeColor=#18D1F7;" parent="1" source="e1Va-rmKH6BIrTXIrwSJ-140" target="e1Va-rmKH6BIrTXIrwSJ-138" edge="1">
          <mxGeometry relative="1" as="geometry" />
        </mxCell>
        <mxCell id="e1Va-rmKH6BIrTXIrwSJ-151" value="" style="edgeStyle=orthogonalEdgeStyle;rounded=0;orthogonalLoop=1;jettySize=auto;html=1;exitX=0.45;exitY=1;exitDx=0;exitDy=0;exitPerimeter=0;entryX=0;entryY=0.5;entryDx=0;entryDy=0;endArrow=none;endFill=0;strokeColor=#18D1F7;" parent="1" source="e1Va-rmKH6BIrTXIrwSJ-140" target="e1Va-rmKH6BIrTXIrwSJ-150" edge="1">
          <mxGeometry relative="1" as="geometry" />
        </mxCell>
        <mxCell id="e1Va-rmKH6BIrTXIrwSJ-140" value="Player" style="rounded=0;whiteSpace=wrap;html=1;" parent="1" vertex="1">
          <mxGeometry x="15" y="390" width="120" height="60" as="geometry" />
        </mxCell>
        <mxCell id="e1Va-rmKH6BIrTXIrwSJ-141" style="edgeStyle=orthogonalEdgeStyle;rounded=0;orthogonalLoop=1;jettySize=auto;html=1;entryX=1;entryY=0.5;entryDx=0;entryDy=0;endArrow=none;endFill=0;strokeColor=#18D1F7;" parent="1" source="e1Va-rmKH6BIrTXIrwSJ-142" target="e1Va-rmKH6BIrTXIrwSJ-138" edge="1">
          <mxGeometry relative="1" as="geometry" />
        </mxCell>
        <mxCell id="e1Va-rmKH6BIrTXIrwSJ-142" value="Coach" style="rounded=0;whiteSpace=wrap;html=1;" parent="1" vertex="1">
          <mxGeometry x="205" y="390" width="120" height="60" as="geometry" />
        </mxCell>
        <mxCell id="e1Va-rmKH6BIrTXIrwSJ-143" value="&lt;span style=&quot;color: rgb(0, 0, 0); font-family: Helvetica; font-size: 12px; font-style: normal; font-variant-ligatures: normal; font-variant-caps: normal; font-weight: 400; letter-spacing: normal; orphans: 2; text-align: center; text-indent: 0px; text-transform: none; widows: 2; word-spacing: 0px; -webkit-text-stroke-width: 0px; white-space: normal; background-color: rgb(251, 251, 251); text-decoration-thickness: initial; text-decoration-style: initial; text-decoration-color: initial; display: inline !important; float: none;&quot;&gt;Is&lt;/span&gt;" style="text;whiteSpace=wrap;html=1;" parent="1" vertex="1">
          <mxGeometry x="165" y="260" width="90" height="40" as="geometry" />
        </mxCell>
        <mxCell id="e1Va-rmKH6BIrTXIrwSJ-144" value="" style="shape=requiredInterface;html=1;verticalLabelPosition=bottom;sketch=0;rotation=90;" parent="1" vertex="1">
          <mxGeometry x="152.48000000000002" y="240" width="45.03" height="130" as="geometry" />
        </mxCell>
        <mxCell id="e1Va-rmKH6BIrTXIrwSJ-145" value="(1,1)" style="text;html=1;align=center;verticalAlign=middle;resizable=0;points=[];autosize=1;strokeColor=none;fillColor=none;" parent="1" vertex="1">
          <mxGeometry x="175" y="180" width="50" height="30" as="geometry" />
        </mxCell>
        <mxCell id="e1Va-rmKH6BIrTXIrwSJ-146" value="(0,1)" style="text;html=1;align=center;verticalAlign=middle;resizable=0;points=[];autosize=1;strokeColor=none;fillColor=none;" parent="1" vertex="1">
          <mxGeometry x="20" y="358" width="50" height="30" as="geometry" />
        </mxCell>
        <mxCell id="e1Va-rmKH6BIrTXIrwSJ-147" value="(0,1)" style="text;html=1;align=center;verticalAlign=middle;resizable=0;points=[];autosize=1;strokeColor=none;fillColor=none;" parent="1" vertex="1">
          <mxGeometry x="270" y="358" width="50" height="30" as="geometry" />
        </mxCell>
        <mxCell id="e1Va-rmKH6BIrTXIrwSJ-152" style="edgeStyle=orthogonalEdgeStyle;rounded=0;orthogonalLoop=1;jettySize=auto;html=1;entryX=0.25;entryY=1;entryDx=0;entryDy=0;endArrow=none;endFill=0;strokeColor=#18D1F7;" parent="1" source="e1Va-rmKH6BIrTXIrwSJ-150" target="e1Va-rmKH6BIrTXIrwSJ-26" edge="1">
          <mxGeometry relative="1" as="geometry" />
        </mxCell>
        <mxCell id="e1Va-rmKH6BIrTXIrwSJ-150" value="Use" style="rhombus;whiteSpace=wrap;html=1;rounded=0;" parent="1" vertex="1">
          <mxGeometry x="225.00000000000003" y="490" width="80" height="80" as="geometry" />
        </mxCell>
        <mxCell id="e1Va-rmKH6BIrTXIrwSJ-157" style="edgeStyle=orthogonalEdgeStyle;rounded=0;orthogonalLoop=1;jettySize=auto;html=1;entryX=0.5;entryY=1;entryDx=0;entryDy=0;endArrow=none;endFill=0;strokeColor=#18D1F7;" parent="1" source="e1Va-rmKH6BIrTXIrwSJ-154" target="e1Va-rmKH6BIrTXIrwSJ-156" edge="1">
          <mxGeometry relative="1" as="geometry" />
        </mxCell>
        <mxCell id="e1Va-rmKH6BIrTXIrwSJ-154" value="Submit" style="rhombus;whiteSpace=wrap;html=1;rounded=0;" parent="1" vertex="1">
          <mxGeometry x="19.379999999999995" y="-40" width="80" height="80" as="geometry" />
        </mxCell>
        <mxCell id="e1Va-rmKH6BIrTXIrwSJ-156" value="Comments" style="rounded=0;whiteSpace=wrap;html=1;" parent="1" vertex="1">
          <mxGeometry x="-0.6200000000000045" y="-190" width="120" height="60" as="geometry" />
        </mxCell>
        <mxCell id="e1Va-rmKH6BIrTXIrwSJ-194" style="edgeStyle=orthogonalEdgeStyle;rounded=0;orthogonalLoop=1;jettySize=auto;html=1;entryX=0;entryY=0.5;entryDx=0;entryDy=0;strokeColor=#18D1F7;endArrow=none;endFill=0;" parent="1" source="e1Va-rmKH6BIrTXIrwSJ-158" target="e1Va-rmKH6BIrTXIrwSJ-156" edge="1">
          <mxGeometry relative="1" as="geometry" />
        </mxCell>
        <mxCell id="e1Va-rmKH6BIrTXIrwSJ-158" value="&lt;u&gt;Id&lt;/u&gt;" style="ellipse;whiteSpace=wrap;html=1;rounded=0;" parent="1" vertex="1">
          <mxGeometry x="-220" y="-30" width="90" height="40" as="geometry" />
        </mxCell>
        <mxCell id="e1Va-rmKH6BIrTXIrwSJ-193" style="edgeStyle=orthogonalEdgeStyle;rounded=0;orthogonalLoop=1;jettySize=auto;html=1;entryX=0;entryY=0.5;entryDx=0;entryDy=0;strokeColor=#18D1F7;endArrow=none;endFill=0;" parent="1" source="e1Va-rmKH6BIrTXIrwSJ-166" target="e1Va-rmKH6BIrTXIrwSJ-156" edge="1">
          <mxGeometry relative="1" as="geometry" />
        </mxCell>
        <mxCell id="e1Va-rmKH6BIrTXIrwSJ-166" value="email" style="ellipse;whiteSpace=wrap;html=1;rounded=0;" parent="1" vertex="1">
          <mxGeometry x="-250" y="-80" width="90" height="40" as="geometry" />
        </mxCell>
        <mxCell id="e1Va-rmKH6BIrTXIrwSJ-191" style="edgeStyle=orthogonalEdgeStyle;rounded=0;orthogonalLoop=1;jettySize=auto;html=1;entryX=0;entryY=0.5;entryDx=0;entryDy=0;strokeColor=#18D1F7;endArrow=none;endFill=0;" parent="1" source="e1Va-rmKH6BIrTXIrwSJ-167" target="e1Va-rmKH6BIrTXIrwSJ-156" edge="1">
          <mxGeometry relative="1" as="geometry" />
        </mxCell>
        <mxCell id="e1Va-rmKH6BIrTXIrwSJ-167" value="address" style="ellipse;whiteSpace=wrap;html=1;rounded=0;" parent="1" vertex="1">
          <mxGeometry x="-270" y="-180" width="90" height="40" as="geometry" />
        </mxCell>
        <mxCell id="e1Va-rmKH6BIrTXIrwSJ-190" style="edgeStyle=orthogonalEdgeStyle;rounded=0;orthogonalLoop=1;jettySize=auto;html=1;entryX=0;entryY=0.5;entryDx=0;entryDy=0;strokeColor=#18D1F7;endArrow=none;endFill=0;" parent="1" source="e1Va-rmKH6BIrTXIrwSJ-168" target="e1Va-rmKH6BIrTXIrwSJ-156" edge="1">
          <mxGeometry relative="1" as="geometry" />
        </mxCell>
        <mxCell id="e1Va-rmKH6BIrTXIrwSJ-168" value="description" style="ellipse;whiteSpace=wrap;html=1;rounded=0;" parent="1" vertex="1">
          <mxGeometry x="-260" y="-230" width="90" height="40" as="geometry" />
        </mxCell>
        <mxCell id="e1Va-rmKH6BIrTXIrwSJ-189" style="edgeStyle=orthogonalEdgeStyle;rounded=0;orthogonalLoop=1;jettySize=auto;html=1;entryX=0;entryY=0.5;entryDx=0;entryDy=0;strokeColor=#18D1F7;endArrow=none;endFill=0;" parent="1" source="e1Va-rmKH6BIrTXIrwSJ-169" target="e1Va-rmKH6BIrTXIrwSJ-156" edge="1">
          <mxGeometry relative="1" as="geometry" />
        </mxCell>
        <mxCell id="e1Va-rmKH6BIrTXIrwSJ-169" value="city" style="ellipse;whiteSpace=wrap;html=1;rounded=0;" parent="1" vertex="1">
          <mxGeometry x="-250" y="-280" width="90" height="40" as="geometry" />
        </mxCell>
        <mxCell id="e1Va-rmKH6BIrTXIrwSJ-188" style="edgeStyle=orthogonalEdgeStyle;rounded=0;orthogonalLoop=1;jettySize=auto;html=1;entryX=0;entryY=0.5;entryDx=0;entryDy=0;strokeColor=#18D1F7;endArrow=none;endFill=0;" parent="1" source="e1Va-rmKH6BIrTXIrwSJ-170" target="e1Va-rmKH6BIrTXIrwSJ-156" edge="1">
          <mxGeometry relative="1" as="geometry" />
        </mxCell>
        <mxCell id="e1Va-rmKH6BIrTXIrwSJ-170" value="favorite_game" style="ellipse;whiteSpace=wrap;html=1;rounded=0;" parent="1" vertex="1">
          <mxGeometry x="-220" y="-330" width="90" height="40" as="geometry" />
        </mxCell>
        <mxCell id="e1Va-rmKH6BIrTXIrwSJ-192" style="edgeStyle=orthogonalEdgeStyle;rounded=0;orthogonalLoop=1;jettySize=auto;html=1;entryX=0;entryY=0.5;entryDx=0;entryDy=0;strokeColor=#18D1F7;endArrow=none;endFill=0;" parent="1" source="e1Va-rmKH6BIrTXIrwSJ-171" target="e1Va-rmKH6BIrTXIrwSJ-156" edge="1">
          <mxGeometry relative="1" as="geometry" />
        </mxCell>
        <mxCell id="e1Va-rmKH6BIrTXIrwSJ-171" value="zip_code" style="ellipse;whiteSpace=wrap;html=1;rounded=0;" parent="1" vertex="1">
          <mxGeometry x="-260" y="-130" width="90" height="40" as="geometry" />
        </mxCell>
        <mxCell id="e1Va-rmKH6BIrTXIrwSJ-180" value="(0,1)" style="text;html=1;align=center;verticalAlign=middle;resizable=0;points=[];autosize=1;strokeColor=none;fillColor=none;" parent="1" vertex="1">
          <mxGeometry x="-5.6200000000000045" y="-122" width="50" height="30" as="geometry" />
        </mxCell>
        <mxCell id="e1Va-rmKH6BIrTXIrwSJ-181" value="(1,1)" style="text;html=1;align=center;verticalAlign=middle;resizable=0;points=[];autosize=1;strokeColor=none;fillColor=none;" parent="1" vertex="1">
          <mxGeometry x="115" y="78" width="50" height="30" as="geometry" />
        </mxCell>
        <mxCell id="e1Va-rmKH6BIrTXIrwSJ-182" value="1:1" style="text;html=1;align=center;verticalAlign=middle;resizable=0;points=[];autosize=1;strokeColor=none;fillColor=none;" parent="1" vertex="1">
          <mxGeometry x="-20.620000000000005" y="-15" width="40" height="30" as="geometry" />
        </mxCell>
        <mxCell id="e1Va-rmKH6BIrTXIrwSJ-183" value="(1,1)" style="text;html=1;align=center;verticalAlign=middle;resizable=0;points=[];autosize=1;strokeColor=none;fillColor=none;" parent="1" vertex="1">
          <mxGeometry x="325" y="378" width="50" height="30" as="geometry" />
        </mxCell>
        <mxCell id="e1Va-rmKH6BIrTXIrwSJ-185" value="(1,1)" style="text;html=1;align=center;verticalAlign=middle;resizable=0;points=[];autosize=1;strokeColor=none;fillColor=none;" parent="1" vertex="1">
          <mxGeometry x="70" y="460" width="50" height="30" as="geometry" />
        </mxCell>
        <mxCell id="e1Va-rmKH6BIrTXIrwSJ-186" value="(1,N)" style="text;html=1;align=center;verticalAlign=middle;resizable=0;points=[];autosize=1;strokeColor=none;fillColor=none;" parent="1" vertex="1">
          <mxGeometry x="585" y="458" width="50" height="30" as="geometry" />
        </mxCell>
        <mxCell id="e1Va-rmKH6BIrTXIrwSJ-187" value="1:N" style="text;html=1;align=center;verticalAlign=middle;resizable=0;points=[];autosize=1;strokeColor=none;fillColor=none;" parent="1" vertex="1">
          <mxGeometry x="245" y="580" width="40" height="30" as="geometry" />
        </mxCell>
        <mxCell id="e1Va-rmKH6BIrTXIrwSJ-199" style="edgeStyle=orthogonalEdgeStyle;rounded=0;orthogonalLoop=1;jettySize=auto;html=1;entryX=0.5;entryY=1;entryDx=0;entryDy=0;strokeColor=#18D1F7;endArrow=none;endFill=0;" parent="1" source="e1Va-rmKH6BIrTXIrwSJ-196" target="e1Va-rmKH6BIrTXIrwSJ-198" edge="1">
          <mxGeometry relative="1" as="geometry" />
        </mxCell>
        <mxCell id="e1Va-rmKH6BIrTXIrwSJ-196" value="Send" style="rhombus;whiteSpace=wrap;html=1;rounded=0;" parent="1" vertex="1">
          <mxGeometry x="270" y="-40" width="80" height="80" as="geometry" />
        </mxCell>
        <mxCell id="e1Va-rmKH6BIrTXIrwSJ-198" value="Character Modification&lt;div&gt;&amp;nbsp;Proposal&lt;/div&gt;" style="rounded=0;whiteSpace=wrap;html=1;" parent="1" vertex="1">
          <mxGeometry x="250" y="-190" width="120" height="60" as="geometry" />
        </mxCell>
        <mxCell id="e1Va-rmKH6BIrTXIrwSJ-200" value="(0,1)" style="text;html=1;align=center;verticalAlign=middle;resizable=0;points=[];autosize=1;strokeColor=none;fillColor=none;" parent="1" vertex="1">
          <mxGeometry x="305" y="-120" width="50" height="30" as="geometry" />
        </mxCell>
        <mxCell id="e1Va-rmKH6BIrTXIrwSJ-201" value="1:1" style="text;html=1;align=center;verticalAlign=middle;resizable=0;points=[];autosize=1;strokeColor=none;fillColor=none;" parent="1" vertex="1">
          <mxGeometry x="350" y="-15" width="40" height="30" as="geometry" />
        </mxCell>
        <mxCell id="e1Va-rmKH6BIrTXIrwSJ-202" value="(1,1)" style="text;html=1;align=center;verticalAlign=middle;resizable=0;points=[];autosize=1;strokeColor=none;fillColor=none;" parent="1" vertex="1">
          <mxGeometry x="185" y="78" width="50" height="30" as="geometry" />
        </mxCell>
        <mxCell id="e1Va-rmKH6BIrTXIrwSJ-214" style="edgeStyle=orthogonalEdgeStyle;rounded=0;orthogonalLoop=1;jettySize=auto;html=1;entryX=0.5;entryY=0;entryDx=0;entryDy=0;endArrow=none;endFill=0;strokeColor=#18D1F7;" parent="1" source="e1Va-rmKH6BIrTXIrwSJ-203" target="e1Va-rmKH6BIrTXIrwSJ-198" edge="1">
          <mxGeometry relative="1" as="geometry" />
        </mxCell>
        <mxCell id="e1Va-rmKH6BIrTXIrwSJ-203" value="&lt;u&gt;Id&lt;/u&gt;" style="ellipse;whiteSpace=wrap;html=1;rounded=0;" parent="1" vertex="1">
          <mxGeometry x="197.51" y="-320" width="90" height="40" as="geometry" />
        </mxCell>
        <mxCell id="e1Va-rmKH6BIrTXIrwSJ-213" style="edgeStyle=orthogonalEdgeStyle;rounded=0;orthogonalLoop=1;jettySize=auto;html=1;entryX=0.5;entryY=0;entryDx=0;entryDy=0;endArrow=none;endFill=0;strokeColor=#18D1F7;" parent="1" source="e1Va-rmKH6BIrTXIrwSJ-204" target="e1Va-rmKH6BIrTXIrwSJ-198" edge="1">
          <mxGeometry relative="1" as="geometry">
            <Array as="points">
              <mxPoint x="345" y="-250" />
              <mxPoint x="310" y="-250" />
            </Array>
          </mxGeometry>
        </mxCell>
        <mxCell id="e1Va-rmKH6BIrTXIrwSJ-204" value="name" style="ellipse;whiteSpace=wrap;html=1;rounded=0;" parent="1" vertex="1">
          <mxGeometry x="300" y="-320" width="90" height="40" as="geometry" />
        </mxCell>
        <mxCell id="e1Va-rmKH6BIrTXIrwSJ-210" style="edgeStyle=orthogonalEdgeStyle;rounded=0;orthogonalLoop=1;jettySize=auto;html=1;entryX=1;entryY=0.5;entryDx=0;entryDy=0;endArrow=none;endFill=0;strokeColor=#18D1F7;" parent="1" source="e1Va-rmKH6BIrTXIrwSJ-205" target="e1Va-rmKH6BIrTXIrwSJ-198" edge="1">
          <mxGeometry relative="1" as="geometry" />
        </mxCell>
        <mxCell id="e1Va-rmKH6BIrTXIrwSJ-205" value="title image" style="ellipse;whiteSpace=wrap;html=1;rounded=0;" parent="1" vertex="1">
          <mxGeometry x="470" y="-190" width="90" height="40" as="geometry" />
        </mxCell>
        <mxCell id="e1Va-rmKH6BIrTXIrwSJ-212" style="edgeStyle=orthogonalEdgeStyle;rounded=0;orthogonalLoop=1;jettySize=auto;html=1;entryX=0.5;entryY=0;entryDx=0;entryDy=0;endArrow=none;endFill=0;strokeColor=#18D1F7;" parent="1" source="e1Va-rmKH6BIrTXIrwSJ-206" target="e1Va-rmKH6BIrTXIrwSJ-198" edge="1">
          <mxGeometry relative="1" as="geometry">
            <Array as="points">
              <mxPoint x="445" y="-250" />
              <mxPoint x="310" y="-250" />
            </Array>
          </mxGeometry>
        </mxCell>
        <mxCell id="e1Va-rmKH6BIrTXIrwSJ-206" value="background image" style="ellipse;whiteSpace=wrap;html=1;rounded=0;" parent="1" vertex="1">
          <mxGeometry x="401.25" y="-320" width="90" height="40" as="geometry" />
        </mxCell>
        <mxCell id="e1Va-rmKH6BIrTXIrwSJ-211" style="edgeStyle=orthogonalEdgeStyle;rounded=0;orthogonalLoop=1;jettySize=auto;html=1;entryX=0.5;entryY=0;entryDx=0;entryDy=0;endArrow=none;endFill=0;strokeColor=#18D1F7;" parent="1" source="e1Va-rmKH6BIrTXIrwSJ-207" target="e1Va-rmKH6BIrTXIrwSJ-198" edge="1">
          <mxGeometry relative="1" as="geometry">
            <Array as="points">
              <mxPoint x="310" y="-250" />
            </Array>
          </mxGeometry>
        </mxCell>
        <mxCell id="e1Va-rmKH6BIrTXIrwSJ-207" value="biography" style="ellipse;whiteSpace=wrap;html=1;rounded=0;" parent="1" vertex="1">
          <mxGeometry x="470" y="-240" width="90" height="40" as="geometry" />
        </mxCell>
        <mxCell id="e1Va-rmKH6BIrTXIrwSJ-209" style="edgeStyle=orthogonalEdgeStyle;rounded=0;orthogonalLoop=1;jettySize=auto;html=1;entryX=1;entryY=0.5;entryDx=0;entryDy=0;endArrow=none;endFill=0;strokeColor=#18D1F7;" parent="1" source="e1Va-rmKH6BIrTXIrwSJ-208" target="e1Va-rmKH6BIrTXIrwSJ-198" edge="1">
          <mxGeometry relative="1" as="geometry" />
        </mxCell>
        <mxCell id="e1Va-rmKH6BIrTXIrwSJ-208" value="Introduction" style="ellipse;whiteSpace=wrap;html=1;rounded=0;" parent="1" vertex="1">
          <mxGeometry x="470" y="-140" width="90" height="40" as="geometry" />
        </mxCell>
        <mxCell id="NYMjdDStDqnwdgFiK5yl-2" style="edgeStyle=orthogonalEdgeStyle;rounded=0;orthogonalLoop=1;jettySize=auto;html=1;entryX=0.5;entryY=0;entryDx=0;entryDy=0;strokeColor=#18D1F7;endArrow=none;endFill=0;" parent="1" source="NYMjdDStDqnwdgFiK5yl-1" target="e1Va-rmKH6BIrTXIrwSJ-14" edge="1">
          <mxGeometry relative="1" as="geometry">
            <Array as="points">
              <mxPoint x="960" y="60" />
              <mxPoint x="819" y="60" />
            </Array>
          </mxGeometry>
        </mxCell>
        <mxCell id="NYMjdDStDqnwdgFiK5yl-1" value="character_image" style="ellipse;whiteSpace=wrap;html=1;rounded=0;" parent="1" vertex="1">
          <mxGeometry x="948.75" y="-25" width="101.25" height="50" as="geometry" />
        </mxCell>
        <mxCell id="NYMjdDStDqnwdgFiK5yl-4" style="edgeStyle=orthogonalEdgeStyle;rounded=0;orthogonalLoop=1;jettySize=auto;html=1;strokeColor=#18D1F7;endArrow=none;endFill=0;" parent="1" source="NYMjdDStDqnwdgFiK5yl-3" target="e1Va-rmKH6BIrTXIrwSJ-198" edge="1">
          <mxGeometry relative="1" as="geometry">
            <Array as="points">
              <mxPoint x="546" y="-250" />
              <mxPoint x="310" y="-250" />
            </Array>
          </mxGeometry>
        </mxCell>
        <mxCell id="NYMjdDStDqnwdgFiK5yl-3" value="character_image" style="ellipse;whiteSpace=wrap;html=1;rounded=0;" parent="1" vertex="1">
          <mxGeometry x="495" y="-310" width="101.25" height="50" as="geometry" />
        </mxCell>
        <mxCell id="8iYyZ80RsqxAMbTsYWAY-1" value="1:1" style="text;html=1;align=center;verticalAlign=middle;resizable=0;points=[];autosize=1;strokeColor=none;fillColor=none;" vertex="1" parent="1">
          <mxGeometry x="865" y="340" width="40" height="30" as="geometry" />
        </mxCell>
        <mxCell id="8iYyZ80RsqxAMbTsYWAY-3" value="(1,1)" style="text;html=1;align=center;verticalAlign=middle;resizable=0;points=[];autosize=1;strokeColor=none;fillColor=none;" vertex="1" parent="1">
          <mxGeometry x="955" y="378" width="50" height="30" as="geometry" />
        </mxCell>
        <mxCell id="8iYyZ80RsqxAMbTsYWAY-4" value="(1,1)" style="text;html=1;align=center;verticalAlign=middle;resizable=0;points=[];autosize=1;strokeColor=none;fillColor=none;" vertex="1" parent="1">
          <mxGeometry x="737" y="378" width="50" height="30" as="geometry" />
        </mxCell>
      </root>
    </mxGraphModel>
  </diagram>
</mxfile>
